# https://github.com/mikedh/trimesh
v 6.57947125 -0.72079765 0.33446990
v 6.32588306 -0.61421421 0.43274818
v 6.30481317 -1.53071263 0.77892766
v 6.64011303 -1.27603374 0.20146550
v 6.46334907 -1.37228904 0.21650890
v 6.42318478 -1.17986045 0.12007591
v 6.33954068 -0.79946509 0.18819023
v 6.34685242 -0.71567482 0.26233818
v 6.17512142 -1.40907959 0.94325559
v 6.27127488 -1.44165684 0.91487742
v 6.42037060 -1.51158226 0.37624917
v 6.08597033 -0.75323592 0.96416496
v 6.19589649 -1.55942001 0.71743071
v 6.06042342 -0.57594852 0.68792819
v 6.36029635 -1.56457689 0.61776372
v 6.21108257 -1.36127532 0.16808016
v 6.46852053 -0.88902643 0.15826061
v 6.05824442 -0.57825612 0.46502264
v 6.19929453 -1.57594850 0.47575156
v 6.18736898 -1.48133444 0.27774920
v 6.11763146 -0.99866321 0.07475077
v 6.07326175 -0.67984479 0.25733455
v 6.15654315 -1.26678174 0.11141855
v 6.58842745 -0.81563959 0.23584135
v 6.70031944 -1.39832073 0.31841309
v 7.01880643 -1.07451874 0.29286519
v 7.03412719 -1.18680288 0.31512035
v 6.55089524 -1.01769065 0.13228264
v 7.04300280 -1.25933531 0.36249342
v 6.57060616 -1.13648536 0.13756674
v 6.26070666 -1.31251996 1.01612078
v 6.59997699 -1.38383464 0.88824367
v 6.61557637 -1.48103554 0.75919688
v 6.69190114 -0.70119776 0.45841132
v 6.59073794 -1.51243931 0.46377544
v 6.57201884 -1.30436832 0.95443042
v 6.46455253 -0.61750693 0.62122732
v 7.05524666 -1.33759780 0.47222913
v 7.05824444 -1.35629450 0.61391640
v 6.63649802 -1.51446785 0.60636913
v 7.04265155 -1.24668707 0.79617378
v 6.69131223 -1.21075277 0.95667473
v 6.35014697 -1.23796496 1.03115073
v 6.48740573 -0.66296217 0.76484546
v 6.99873295 -0.93639418 0.31993171
v 6.14545397 -1.20031848 1.04851334
v 6.21967236 -1.04976263 1.07475076
v 6.10444353 -0.89538314 1.04520953
v 6.23448400 -1.15289695 1.06642664
v 6.41116372 -0.70541050 0.85764568
v 6.84420798 -0.84678692 0.82864337
v 6.54290054 -0.87167389 0.96728210
v 6.56275303 -0.94236793 0.99330370
v 6.97717542 -0.77645595 0.56296841
v 6.98197808 -0.81195988 0.42790784
v 6.89761683 -0.75970548 0.65604475
v 6.98332825 -0.82358730 0.72919313
v 7.00141296 -0.95498873 0.83471344
v 7.01714245 -1.06407930 0.86619572
v 6.54695444 -1.09673730 1.01851732
vn 0.97181429 0.20012399 -0.12460892
vn 0.92540233 0.36135555 -0.11424834
vn 0.62135243 -0.69911038 0.35378785
vn 0.97399863 -0.10385802 -0.20134593
vn 0.94789363 -0.20505051 -0.24382770
vn 0.91892735 -0.08758637 -0.38457919
vn 0.82951499 0.31385514 -0.46195220
vn 0.93080340 0.28181588 -0.23277636
vn -0.96401872 -0.18029877 0.19534654
vn 0.43492041 -0.70370860 0.56181708
vn 0.92434698 -0.34056447 -0.17204217
vn -0.91137278 0.26875393 0.31172260
vn -0.92659295 -0.36457072 0.09226969
vn -0.91702290 0.38659513 0.09804693
vn 0.85179981 -0.52221189 0.04161516
vn -0.54512775 -0.49854516 -0.67400925
vn 0.94904513 0.13579743 -0.28438072
vn -0.92778763 0.36651697 -0.06982418
vn -0.89749862 -0.43377472 -0.07959728
vn -0.89962280 -0.35373954 -0.25602178
vn -0.91113320 0.05905095 -0.40785938
vn -0.92542222 0.29389964 -0.23920016
vn -0.90458868 -0.17083802 -0.39055563
vn 0.97550982 0.13853749 -0.17084485
vn 0.97810801 -0.16284966 -0.12955584
vn 0.99669829 0.00768002 -0.08083031
vn 0.99677477 -0.02500340 -0.07625535
vn 0.96602427 0.04028518 -0.25529240
vn 0.99688503 -0.05029188 -0.06075330
vn 0.96796814 -0.03021431 -0.24924842
vn -0.03693739 -0.49188171 0.86987816
vn 0.97360004 -0.16073878 0.16206791
vn 0.97280107 -0.20911613 0.09964193
vn 0.97846437 0.19969972 -0.05222548
vn 0.96931668 -0.23826913 -0.06044001
vn 0.97241914 -0.12107000 0.19935665
vn 0.95365168 0.30023849 0.02013256
vn 0.99688851 -0.07312180 -0.02943630
vn 0.99685842 -0.07788598 0.01438958
vn 0.97385488 -0.22671211 0.01443223
vn 0.99682762 -0.04778868 0.06364693
vn 0.98226687 -0.05762112 0.17841411
vn 0.93218867 -0.10876075 0.34524684
vn 0.95422551 0.27067473 0.12723548
vn 0.99591393 0.04736958 -0.07688668
vn -0.97744124 -0.06826514 0.19987121
vn -0.36256891 0.05180538 0.93051598
vn -0.91627464 0.14389440 0.37381169
vn 0.21804316 -0.13928749 0.96594833
vn 0.92992836 0.29673903 0.21720771
vn 0.98493531 0.12116228 0.12337801
vn 0.96419373 0.14124530 0.22445537
vn 0.96819336 0.07776041 0.23781283
vn 0.99537781 0.09596157 -0.00379406
vn 0.99532522 0.08505137 -0.04575983
vn 0.98704533 0.15555393 0.03929999
vn 0.99559598 0.08052731 0.04800005
vn 0.99643270 0.04369828 0.07219644
vn 0.99615437 0.00667803 0.08736064
vn 0.97105289 -0.00711840 0.23875850
f 13//13 21//21 19//19
f 13//13 46//46 18//18
f 18//18 21//21 13//13
f 22//22 21//21 18//18
f 54//54 59//59 39//39
f 57//57 59//59 54//54
f 39//39 35//35 38//38
f 38//38 35//35 25//25
f 48//48 52//52 12//12
f 48//48 46//46 47//47
f 18//18 46//46 48//48
f 48//48 14//14 18//18
f 12//12 14//14 48//48
f 53//53 48//48 47//47
f 52//52 48//48 53//53
f 58//58 59//59 57//57
f 58//58 53//53 59//59
f 52//52 53//53 58//58
f 12//12 52//52 50//50
f 50//50 14//14 12//12
f 44//44 14//14 50//50
f 11//11 35//35 19//19
f 25//25 35//35 11//11
f 1//1 24//24 8//8
f 56//56 44//44 57//57
f 57//57 54//54 56//56
f 28//28 45//45 26//26
f 26//26 54//54 39//39
f 39//39 38//38 26//26
f 38//38 27//27 26//26
f 29//29 38//38 25//25
f 29//29 27//27 38//38
f 25//25 4//4 29//29
f 29//29 4//4 27//27
f 3//3 33//33 10//10
f 10//10 13//13 3//3
f 43//43 31//31 36//36
f 36//36 42//42 43//43
f 41//41 42//42 36//36
f 41//41 33//33 39//39
f 39//39 59//59 41//41
f 59//59 42//42 41//41
f 40//40 35//35 39//39
f 39//39 33//33 40//40
f 51//51 58//58 57//57
f 52//52 58//58 51//51
f 51//51 50//50 52//52
f 57//57 44//44 51//51
f 44//44 50//50 51//51
f 25//25 11//11 5//5
f 5//5 4//4 25//25
f 7//7 8//8 24//24
f 21//21 22//22 7//7
f 22//22 8//8 7//7
f 2//2 34//34 1//1
f 1//1 8//8 2//2
f 2//2 22//22 18//18
f 2//2 8//8 22//22
f 55//55 26//26 45//45
f 54//54 26//26 55//55
f 55//55 24//24 1//1
f 45//45 24//24 55//55
f 1//1 34//34 55//55
f 55//55 34//34 54//54
f 27//27 4//4 30//30
f 28//28 26//26 30//30
f 30//30 26//26 27//27
f 30//30 21//21 28//28
f 32//32 10//10 33//33
f 32//32 41//41 36//36
f 33//33 41//41 32//32
f 36//36 31//31 32//32
f 31//31 10//10 32//32
f 46//46 13//13 9//9
f 13//13 10//10 9//9
f 9//9 31//31 46//46
f 9//9 10//10 31//31
f 60//60 43//43 42//42
f 60//60 53//53 47//47
f 60//60 42//42 59//59
f 59//59 53//53 60//60
f 15//15 33//33 3//3
f 15//15 40//40 33//33
f 3//3 13//13 15//15
f 15//15 13//13 19//19
f 19//19 35//35 15//15
f 35//35 40//40 15//15
f 16//16 5//5 20//20
f 20//20 5//5 11//11
f 20//20 11//11 19//19
f 17//17 7//7 24//24
f 17//17 45//45 28//28
f 17//17 24//24 45//45
f 28//28 21//21 17//17
f 21//21 7//7 17//17
f 18//18 14//14 37//37
f 37//37 2//2 18//18
f 37//37 14//14 44//44
f 34//34 2//2 37//37
f 44//44 56//56 37//37
f 37//37 56//56 54//54
f 54//54 34//34 37//37
f 16//16 20//20 23//23
f 19//19 21//21 23//23
f 23//23 20//20 19//19
f 23//23 5//5 16//16
f 4//4 5//5 23//23
f 49//49 60//60 47//47
f 43//43 60//60 49//49
f 47//47 46//46 49//49
f 46//46 31//31 49//49
f 31//31 43//43 49//49
f 6//6 30//30 4//4
f 4//4 23//23 6//6
f 21//21 30//30 6//6
f 6//6 23//23 21//21